<svg xmlns="http://www.w3.org/2000/svg" width="29.514" height="29.514">
    <path d="M25.539 0H3.979A3.977 3.977 0 0 0 0 3.977v21.56a3.977 3.977 0 0 0 3.977 3.977h10.635l.018-10.547h-2.74a.646.646 0 0 1-.646-.644l-.013-3.4a.647.647 0 0 1 .647-.649h2.735V10.99c0-3.812 2.328-5.888 5.729-5.888h2.791a.647.647 0 0 1 .647.647v2.866a.647.647 0 0 1-.646.647H21.42c-1.849 0-2.207.879-2.207 2.169v2.844h4.064a.647.647 0 0 1 .642.723l-.4 3.4a.647.647 0 0 1-.642.57H19.23l-.018 10.547h6.327a3.977 3.977 0 0 0 3.977-3.977V3.977A3.977 3.977 0 0 0 25.539 0z" transform="translate(-.002)" style="fill:#233342"/>
</svg>
