<svg id="instagram_1_" data-name="instagram (1)" xmlns="http://www.w3.org/2000/svg" width="29.53" height="29.53">
    <defs>
        <style>
            .cls-1{fill:#233342}
        </style>
    </defs>
    <path id="Path_585" data-name="Path 585" class="cls-1" d="M20.733 0H8.8A8.807 8.807 0 0 0 0 8.8v11.933a8.807 8.807 0 0 0 8.8 8.8h11.933a8.807 8.807 0 0 0 8.8-8.8V8.8a8.807 8.807 0 0 0-8.8-8.8zm5.826 20.733a5.826 5.826 0 0 1-5.826 5.826H8.8a5.826 5.826 0 0 1-5.826-5.826V8.8A5.826 5.826 0 0 1 8.8 2.971h11.933A5.826 5.826 0 0 1 26.559 8.8v11.933z"/>
    <path id="Path_586" data-name="Path 586" class="cls-1" d="M140.637 133a7.637 7.637 0 1 0 7.637 7.637 7.646 7.646 0 0 0-7.637-7.637zm0 12.3a4.667 4.667 0 1 1 4.667-4.667 4.667 4.667 0 0 1-4.667 4.667z" transform="translate(-125.873 -125.873)"/>
    <circle id="Ellipse_1" data-name="Ellipse 1" class="cls-1" cx="1.83" cy="1.83" transform="translate(20.587 5.355)" r="1.83"/>
</svg>
